<?xml version="1.0" encoding="UTF-8" standalone="no"?>
<!-- Created with Inkscape (http://www.inkscape.org/) -->

<svg
   xmlns:dc="http://purl.org/dc/elements/1.1/"
   xmlns:cc="http://creativecommons.org/ns#"
   xmlns:rdf="http://www.w3.org/1999/02/22-rdf-syntax-ns#"
   xmlns:svg="http://www.w3.org/2000/svg"
   xmlns="http://www.w3.org/2000/svg"
   xmlns:sodipodi="http://sodipodi.sourceforge.net/DTD/sodipodi-0.dtd"
   xmlns:inkscape="http://www.inkscape.org/namespaces/inkscape"
   width="1024"
   height="1024"
   viewBox="0 0 1024 1024"
   id="svg4269"
   version="1.1"
   inkscape:version="0.91 r13725"
   sodipodi:docname="circular-1024x1024.svg"
   inkscape:export-filename="/Users/rougier/Documents/Research/2017 - Spatial Computation/data/circular-gradient-1024x1024.png"
   inkscape:export-xdpi="90"
   inkscape:export-ydpi="90">
  <defs
     id="defs4271" />
  <sodipodi:namedview
     id="base"
     pagecolor="#ffffff"
     bordercolor="#666666"
     borderopacity="1.0"
     inkscape:pageopacity="0"
     inkscape:pageshadow="2"
     inkscape:zoom="0.78417969"
     inkscape:cx="512"
     inkscape:cy="512"
     inkscape:document-units="px"
     inkscape:current-layer="layer1"
     showgrid="false"
     units="px"
     inkscape:window-width="1676"
     inkscape:window-height="1005"
     inkscape:window-x="0"
     inkscape:window-y="23"
     inkscape:window-maximized="1" />
  <metadata
     id="metadata4274">
    <rdf:RDF>
      <cc:Work
         rdf:about="">
        <dc:format>image/svg+xml</dc:format>
        <dc:type
           rdf:resource="http://purl.org/dc/dcmitype/StillImage" />
        <dc:title></dc:title>
      </cc:Work>
    </rdf:RDF>
  </metadata>
  <g
     inkscape:label="Layer 1"
     inkscape:groupmode="layer"
     id="layer1"
     transform="translate(0,-28.362114)">
    <rect
       style="opacity:1;fill:#000000;fill-opacity:0.19607843;stroke:none;stroke-width:5;stroke-miterlimit:4;stroke-dasharray:10, 10;stroke-dashoffset:0;stroke-opacity:1"
       id="rect4201"
       width="1021.4496"
       height="1024"
       x="2.5504358"
       y="28.362091" />
    <path
       style="opacity:1;fill:#000000;fill-opacity:1;stroke:none;stroke-width:5;stroke-miterlimit:4;stroke-dasharray:10, 10;stroke-dashoffset:0;stroke-opacity:1"
       d="M 512 0 A 512 512 0 0 0 0 512 A 512 512 0 0 0 512 1024 A 512 512 0 0 0 1024 512 A 512 512 0 0 0 512 0 z M 512 256 A 256 256 0 0 1 768 512 A 256 256 0 0 1 512 768 A 256 256 0 0 1 256 512 A 256 256 0 0 1 512 256 z "
       transform="translate(0,28.362114)"
       id="path4184" />
    <circle
       style="opacity:1;fill:#000000;fill-opacity:0.19607843;stroke:none;stroke-width:5;stroke-miterlimit:4;stroke-dasharray:10, 10;stroke-dashoffset:0;stroke-opacity:1"
       id="path4184-2-3"
       cx="512"
       cy="539.72449"
       r="256" />
  </g>
</svg>
